<?xml version="1.0" encoding="UTF-8" standalone="no"?>
<svg
   xmlns:svg="http://www.w3.org/2000/svg"
   xmlns="http://www.w3.org/2000/svg"
   version="1.1"
   width="638.28125"
   height="246.34375"
   id="svg3650">
  <defs
     id="defs3652" />
  <g
     transform="translate(-90.4308,-407.19031)"
     id="layer1">
    <path
       d="m 630.0558,408.19031 c -38.39873,0 -97.65625,20.58055 -97.65625,93.90625 0,73.3257 59.25752,93.9375 97.65625,93.9375 38.39124,0 97.65625,-20.6118 97.65625,-93.9375 0,-73.3257 -59.26501,-93.90625 -97.65625,-93.90625 z m -461.84375,2.03125 6.8125,15.03125 0,155.53125 37.09375,-26 0,-45.3125 22.15625,0 c 36.41594,0 54.96875,7.94065 54.96875,29.25 0,18.89259 -14.86676,26.875 -38.21875,26.875 l -35.46875,0 -40.53125,28.40625 75.71875,0 c 45.3497,0 75.875,-16.33982 75.875,-54.125 0,-32.95916 -27.00982,-45.90625 -51.125,-45.90625 16.67037,0 36.34375,-14.9227 36.34375,-40.25 0,-25.31981 -23.15776,-43.5 -49.5625,-43.5 l -77.28125,0 -16.78125,0 z m 175.59375,0 6.78125,15.03125 0,155.53125 37.125,-26 0,-116.15625 25.25,0 c 10.43021,0 63.625,2.6159 63.625,63.46875 0,69.44243 -63.625,63.5 -63.625,63.5 l -21.8125,0 -40.5625,28.40625 72.8125,0 c 45.3497,0 91.84375,-27.8959 91.84375,-91.90625 0,-56.74512 -40.59806,-91.875 -91.84375,-91.875 l -79.59375,0 z m 286.25,25.3125 c 23.19487,0 59,14.59104 59,66.5625 0,51.97146 -35.80513,66.59375 -59,66.59375 -23.19487,0 -59,-14.62229 -59,-66.59375 0,-51.97146 35.80513,-66.5625 59,-66.5625 z m -417.9375,3.09375 38.875,0 c 10.67712,0 24.21875,2.52684 24.21875,20.65625 0,18.13689 -19.32033,25.53125 -33.65625,25.53125 l -29.4375,0 0,-46.1875 z"
       id="path48"
       style="fill:#1c4f9c;fill-opacity:1;fill-rule:nonzero;stroke:none" />
    <path
       d="m 91.4308,410.22156 0,229.09375 36.25,-25.375 0,-203.71875 -36.25,0 z m 43,212.1875 -43,30.125 634.25,0 0,-30.125 -591.25,0 z"
       id="path60"
       style="fill:#ee293d;fill-opacity:1;fill-rule:nonzero;stroke:none" />
  </g>
</svg>
